<svg version="1.1" viewBox="0 0 48 48" xmlns="http://www.w3.org/2000/svg" xmlns:xlink="http://www.w3.org/1999/xlink" id="Ebene_1" overflow="hidden"><style>
.MsftOfcThm_Accent5_Fill {
 fill:#FCD442; 
}
</style>
<g><g><rect x="1" y="23" width="6" height="2" stroke="none" stroke-width="1" stroke-dasharray="" stroke-dashoffset="1" fill="#FCD442" fill-opacity="1"/></g><g><rect x="8.9" y="6.9" width="2" height="6" stroke="none" stroke-width="1" stroke-dasharray="" stroke-dashoffset="1" fill="#FCD442" fill-opacity="1" transform="matrix(0.7071,-0.7071,0.7071,0.7071,-4.0821,9.855)"/></g><g><rect x="23" y="1" width="2" height="6" stroke="none" stroke-width="1" stroke-dasharray="" stroke-dashoffset="1" fill="#FCD442" fill-opacity="1"/></g><g><rect x="35.1" y="8.9" width="6" height="2" stroke="none" stroke-width="1" stroke-dasharray="" stroke-dashoffset="1" fill="#FCD442" fill-opacity="1" transform="matrix(0.7071,-0.7071,0.7071,0.7071,4.2039,29.8591)"/></g><g><rect x="41" y="23" width="6" height="2" stroke="none" stroke-width="1" stroke-dasharray="" stroke-dashoffset="1" fill="#FCD442" fill-opacity="1"/></g><g><path d=" M 29.1 43 L 19.1 43 L 19.1 36 C 14.3 34 11.1 29.3 11.1 24 C 11.1 16.8 16.9 11 24.1 11 C 31.3 11 37.1 16.8 37.1 24 C 37.1 29.2 33.9 34 29.1 36 L 29.1 43 Z M 21.1 41 L 27.1 41 L 27.1 34.6 L 27.8 34.4 C 32.2 32.8 35.1 28.7 35.1 24 C 35.1 17.9 30.2 13 24.1 13 C 18 13 13.1 17.9 13.1 24 C 13.1 28.6 16 32.8 20.4 34.4 L 21.1 34.6 L 21.1 41 Z" stroke="none" stroke-width="1" stroke-dasharray="" stroke-dashoffset="1" fill="#FCD442" fill-opacity="1"/></g><g><rect x="19.1" y="45" width="10" height="2" stroke="none" stroke-width="1" stroke-dasharray="" stroke-dashoffset="1" fill="#FCD442" fill-opacity="1"/></g></g></svg>